# xmcd
#
# Track frame offsets:
#	150
#	34692
#	55667
#	74207
#	98579
#	116703
#	141985
#	171569
#	210175
#	233390
#	260573
#	278886
#
# Disc length: 4238 seconds
#
# Revision: 1
# Processed by: cddbd v1.5.1PL0 Copyright (c) Steve Scherf et al.
# Submitted via: audiograbber 1.83.01
#
DISCID=ae108c0c
DTITLE=Mary Haitz - The Blue Groove
DYEAR=1999
DGENRE=Blues
TTITLE0=Great Big Fool
TTITLE1=Whole Lotta Woman
TTITLE2=Don't Come Back
TTITLE3=Steppin' Out
TTITLE4=Fool In Love
TTITLE5=It's Up To You
TTITLE6=Me And Bobby McGee
TTITLE7=Summertime
TTITLE8=Bone Shuffle
TTITLE9=I've Got The Blues Over You
TTITLE10=Sugar Coated Love
TTITLE11=One Foot In The Blues
EXTD=
EXTT0=
EXTT1=
EXTT2=
EXTT3=
EXTT4=
EXTT5=
EXTT6=
EXTT7=
EXTT8=
EXTT9=
EXTT10=
EXTT11=
PLAYORDER=
